
<svg width="512" height="512" viewBox="0 0 512 512" fill="none" xmlns="http://www.w3.org/2000/svg">
  <rect width="512" height="512" rx="100" fill="#9b87f5"/>
  <path d="M144 166H178.667L216 286.667L253.333 166H288V346H262.667V206L226.667 326H205.333L169.333 206V346H144V166Z" fill="white"/>
  <path d="M304 166H338.667C353.333 166 364.667 169.333 372.667 176C380.667 182.667 384.667 193.333 384.667 208C384.667 222.667 380.667 233.333 372.667 240C364.667 246.667 353.333 250 338.667 250H329.333V346H304V166ZM338.667 228C346 228 351.333 226.667 354.667 224C358 221.333 359.667 216 359.667 208C359.667 200 358 194.667 354.667 192C351.333 189.333 346 188 338.667 188H329.333V228H338.667Z" fill="white"/>
  <path d="M144 365.333H361.333V386H144V365.333Z" fill="white"/>
</svg>
